<?xml version="1.0" standalone="no"?>
<!DOCTYPE svg PUBLIC "-//W3C//DTD SVG 20010904//EN"
 "http://www.w3.org/TR/2001/REC-SVG-20010904/DTD/svg10.dtd">
<svg version="1.0" xmlns="http://www.w3.org/2000/svg"
 width="920.000000pt" height="920.000000pt" viewBox="0 0 920.000000 920.000000"
 preserveAspectRatio="xMidYMid meet">

<g transform="translate(0.000000,920.000000) scale(0.100000,-0.100000)"
fill="#000000" stroke="none">
<path d="M6118 7289 c-17 -9 -18 -53 -18 -687 0 -689 -1 -702 -36 -702 -6 0
-66 32 -132 70 -84 49 -131 70 -154 70 -26 0 -136 -59 -468 -251 -239 -137
-447 -263 -462 -280 l-28 -29 0 -530 0 -529 23 -25 c12 -13 112 -76 222 -139
110 -64 310 -179 445 -257 205 -118 250 -140 276 -136 17 2 118 55 225 116
107 62 302 175 435 251 132 76 251 150 265 165 l24 26 0 1270 0 1270 -31 27
c-35 32 -534 311 -555 311 -8 0 -22 -5 -31 -11z m-120 -2096 l92 -54 2 -67 c0
-37 2 -96 3 -132 1 -36 0 -90 -3 -120 l-4 -56 -156 -89 -155 -89 -46 25 c-25
14 -97 54 -158 90 l-113 64 3 189 2 188 155 89 154 88 66 -35 c36 -20 107 -61
158 -91z"/>
<path d="M1045 6049 c-22 -12 -123 -70 -225 -129 -102 -58 -285 -164 -407
-234 -123 -70 -232 -139 -243 -153 -20 -25 -20 -41 -20 -717 0 -525 3 -695 12
-704 7 -7 23 -12 38 -11 14 0 144 69 290 153 224 129 268 158 282 187 16 30
18 70 18 370 l0 335 28 26 c45 42 256 158 287 158 31 0 243 -117 288 -158 l27
-26 0 -335 c0 -300 2 -340 18 -370 14 -29 58 -58 282 -187 146 -84 276 -153
290 -153 15 -1 31 4 38 11 9 9 12 179 12 705 l0 693 -27 29 c-16 16 -149 99
-298 184 -148 85 -342 196 -430 247 -88 50 -173 94 -190 97 -19 2 -44 -4 -70
-18z"/>
<path d="M8090 6053 c-13 -5 -443 -253 -802 -461 -72 -42 -102 -65 -113 -89
-14 -28 -15 -100 -13 -552 3 -493 4 -520 22 -540 18 -20 201 -127 674 -395
177 -100 230 -126 260 -126 29 1 95 33 302 149 145 82 271 159 279 170 11 18
11 24 0 42 -11 16 -568 343 -837 492 -28 16 -57 37 -62 47 -6 10 -10 93 -10
183 0 150 2 165 19 181 26 23 291 176 305 176 6 0 79 -40 161 -88 l150 -87 5
-150 c3 -83 9 -156 13 -162 18 -28 67 -10 227 84 91 53 211 123 268 155 56 33
109 69 117 81 12 17 15 55 15 179 0 187 4 179 -140 261 -122 69 -365 210 -592
343 -172 101 -216 120 -248 107z"/>
<path d="M3479 6027 c7 -10 20 -17 28 -17 8 0 11 -5 8 -10 -4 -6 -11 -7 -17
-4 -7 5 -8 2 -3 -5 5 -9 10 -10 18 -2 14 14 30 14 22 1 -4 -6 -3 -9 2 -8 4 1
32 -10 61 -26 87 -45 69 -24 -25 30 -104 59 -112 62 -94 41z"/>
<path d="M3535 5950 c8 -9 12 -20 8 -25 -5 -4 -2 -5 5 -1 9 6 10 11 3 20 -6 7
-9 15 -6 18 3 2 -2 5 -10 5 -13 0 -13 -2 0 -17z"/>
<path d="M3670 5922 c0 -7 140 -85 140 -78 0 2 -31 22 -70 45 -38 22 -70 37
-70 33z"/>
<path d="M3556 5912 c-2 -4 -1 -14 4 -22 7 -11 9 -9 7 8 -1 24 -3 26 -11 14z"/>
<path d="M3583 5863 c0 -12 4 -21 7 -20 3 1 5 -1 5 -4 0 -4 8 -16 18 -26 9
-11 14 -23 10 -27 -5 -4 -1 -6 7 -4 11 2 14 -4 12 -22 -2 -14 -1 -22 2 -19 3
3 7 14 9 25 1 10 7 26 12 34 8 13 7 13 -8 1 -15 -12 -21 -9 -18 12 0 4 -5 6
-11 5 -8 -2 -13 6 -12 19 1 13 -2 20 -7 18 -4 -3 -12 3 -18 12 -9 16 -10 16
-8 -4z"/>
<path d="M3820 5836 c0 -3 14 -12 30 -21 17 -9 30 -13 30 -11 0 3 -13 12 -30
21 -16 9 -30 13 -30 11z"/>
<path d="M3890 5796 c0 -7 90 -59 95 -54 2 2 -18 16 -46 31 -27 16 -49 26 -49
23z"/>
<path d="M3665 5752 c3 -3 -1 -12 -7 -21 -8 -10 -4 -9 10 3 26 23 26 23 7 23
-8 0 -13 -3 -10 -5z"/>
<path d="M3674 5718 l-19 -23 23 19 c12 11 22 21 22 23 0 8 -8 2 -26 -19z"/>
<path d="M3689 5703 l-24 -28 28 24 c25 23 32 31 24 31 -2 0 -14 -12 -28 -27z"/>
<path d="M4030 5716 c0 -3 9 -10 20 -16 11 -6 20 -8 20 -6 0 3 -9 10 -20 16
-11 6 -20 8 -20 6z"/>
<path d="M3704 5688 l-19 -23 23 19 c21 18 27 26 19 26 -2 0 -12 -10 -23 -22z"/>
<path d="M3729 5684 c-16 -19 -23 -60 -11 -67 4 -3 7 7 6 21 -1 15 5 35 14 45
8 9 13 17 10 17 -3 0 -12 -7 -19 -16z"/>
<path d="M3749 5675 c-1 -3 -2 -8 -3 -12 -1 -5 -5 -13 -9 -20 -4 -6 -3 -15 3
-18 8 -5 7 -11 -1 -21 -10 -12 -9 -17 0 -27 10 -9 11 -8 5 8 -7 18 -6 18 9 7
8 -8 15 -19 13 -25 -1 -7 -1 -9 1 -4 3 4 9 4 14 1 6 -4 6 -10 0 -18 -8 -9 -4
-26 12 -59 22 -42 22 -47 8 -64 -9 -10 -4 -7 12 6 30 27 37 19 10 -13 -17 -20
-17 -20 0 -7 9 7 17 10 17 6 0 -5 -8 -18 -17 -29 -18 -21 -18 -21 5 -2 23 20
31 10 10 -13 -9 -10 -10 -12 -1 -7 7 4 16 -1 21 -11 11 -20 5 -46 -8 -38 -5 3
-6 13 -3 23 3 9 3 14 -1 11 -11 -10 -16 -50 -5 -44 5 4 9 -1 9 -10 0 -10 -5
-13 -12 -9 -7 4 -10 4 -6 -1 11 -12 -12 -36 -26 -28 -8 5 -8 3 0 -8 5 -8 10
-21 9 -29 0 -8 7 -26 17 -39 12 -16 15 -28 8 -40 -5 -10 -5 -23 0 -31 5 -8 6
-18 4 -22 -3 -4 -2 -14 3 -20 12 -20 11 -31 -6 -52 -9 -11 -11 -16 -4 -12 9 5
12 -3 11 -28 -1 -31 -3 -34 -17 -23 -14 10 -14 10 -3 -4 10 -13 10 -18 -1 -28
-8 -6 -18 -7 -23 -3 -4 4 -3 0 4 -10 9 -11 10 -18 2 -23 -7 -4 -7 -11 -2 -18
5 -7 8 -29 7 -50 -1 -21 5 -42 12 -49 11 -9 10 -16 -9 -37 -19 -22 -20 -23 -2
-8 11 9 24 14 28 10 4 -5 6 -3 4 2 -2 6 1 11 6 13 5 1 10 -11 11 -27 2 -20 -1
-28 -10 -25 -6 3 -18 -3 -25 -13 -12 -15 -12 -16 0 -5 20 17 35 15 20 -3 -7
-8 -9 -15 -5 -15 5 0 0 -9 -9 -19 -12 -13 -14 -21 -6 -26 5 -3 8 -10 5 -15 -3
-5 -1 -11 5 -15 5 -3 10 -17 10 -30 0 -13 5 -27 10 -30 6 -3 10 -17 10 -31 0
-14 -4 -23 -10 -19 -5 3 -7 12 -4 19 3 7 -2 19 -10 26 -9 7 -13 17 -9 24 3 6
2 7 -2 3 -13 -11 -15 -37 -3 -34 6 1 13 -4 16 -12 3 -9 0 -11 -8 -6 -10 6 -11
4 -4 -6 23 -36 8 -129 -18 -113 -6 4 -2 -5 7 -20 16 -24 14 -31 -10 -26 -5 1
-1 -8 9 -19 11 -12 21 -33 22 -47 2 -23 1 -24 -14 -12 -15 11 -15 11 -6 -2 9
-13 11 -34 4 -42 -10 -13 -5 -40 11 -54 18 -16 17 -34 -2 -34 -6 0 -8 4 -5 9
3 5 -2 15 -11 22 -15 12 -16 12 -8 -1 16 -25 14 -40 -5 -50 -9 -5 -19 -8 -21
-7 -2 1 -3 0 -2 -2 2 -2 -22 -19 -52 -38 -58 -37 -78 -58 -22 -25 17 11 113
65 212 121 99 56 187 106 195 111 8 6 26 16 40 22 14 7 27 15 30 18 8 9 151
90 159 90 4 0 14 13 24 29 15 26 17 76 17 548 0 425 -2 523 -14 538 -13 18
-14 17 -31 -16 -39 -77 -220 -394 -228 -400 -5 -3 -8 -9 -8 -13 2 -8 -28 -66
-34 -66 -2 0 -16 21 -31 48 -15 26 -35 57 -45 70 -9 12 -15 31 -12 42 8 29 22
14 17 -18 -3 -18 -1 -23 5 -13 11 16 26 -3 15 -21 -5 -7 -3 -8 6 -3 9 5 11 4
6 -3 -4 -7 -2 -20 4 -29 9 -16 10 -15 5 5 -4 12 -4 22 0 22 9 0 28 -53 27 -75
-1 -15 1 -16 8 -6 4 8 6 21 2 29 -4 11 -1 13 8 7 9 -6 11 -4 5 5 -6 9 -4 11 5
5 10 -6 11 -4 4 6 -12 20 -11 42 4 60 10 13 10 18 -3 29 -8 7 -13 16 -10 20 3
5 1 11 -4 14 -13 8 -8 -19 7 -37 10 -11 9 -17 -5 -28 -15 -12 -16 -12 -10 3 3
9 0 22 -8 28 -13 11 -15 27 -3 46 4 6 1 11 -7 11 -7 0 -12 -8 -10 -18 2 -10 0
-21 -6 -24 -5 -4 -10 -1 -10 4 -1 6 -2 17 -3 24 -1 6 2 17 6 24 8 10 4 11 -31
4 -2 -1 2 -7 8 -15 8 -9 8 -16 2 -20 -12 -8 -23 26 -16 47 4 8 1 18 -5 22 -8
5 -7 11 2 23 7 9 8 13 2 9 -13 -8 -37 16 -27 26 3 4 13 1 22 -5 13 -10 14 -10
4 2 -19 21 -42 21 -38 0 2 -10 -2 -26 -9 -36 -11 -15 -13 -11 -12 27 1 33 -3
44 -14 44 -8 0 -19 5 -23 10 -5 6 -7 3 -3 -7 6 -21 -10 -34 -17 -14 -3 7 3 29
14 47 19 33 19 33 1 12 -11 -12 -22 -19 -26 -16 -3 4 1 14 9 23 14 15 14 19
-2 31 -16 13 -17 12 -5 -3 8 -10 9 -19 3 -22 -5 -3 -11 -3 -14 1 -2 5 -2 3 -1
-4 4 -17 -13 -26 -19 -11 -2 7 2 25 10 41 7 15 11 27 7 27 -4 0 -1 6 5 14 8
10 9 16 1 21 -6 4 -10 3 -9 -2 1 -4 0 -11 -1 -15 -4 -13 -7 -27 -9 -39 0 -5
-5 -8 -10 -5 -7 5 -8 41 -1 41 1 0 4 11 6 24 2 14 2 22 -2 19 -5 -5 -7 -14
-13 -48 -1 -3 -5 2 -10 10 -6 8 -7 19 -3 25 11 17 10 54 -2 52 -6 -1 -10 4 -8
11 1 6 -4 11 -10 10 -8 -2 -13 6 -12 18 1 11 -5 21 -12 21 -10 0 -11 -4 -3
-14 6 -7 8 -13 3 -13 -4 0 3 -11 16 -25 26 -28 33 -52 19 -61 -6 -3 -4 -15 5
-29 9 -13 12 -26 7 -29 -12 -8 -32 44 -27 70 3 14 -4 30 -19 44 -14 13 -22 26
-20 31 3 4 1 10 -5 14 -6 4 -7 12 -3 18 9 14 13 37 7 37 -2 0 -5 -2 -5 -5z
m127 -300 c-2 -7 1 -21 8 -30 11 -15 13 -15 25 -1 21 26 29 19 26 -24 -3 -48
8 -59 29 -28 9 12 16 19 16 15 0 -16 2 -23 11 -33 5 -6 7 -18 3 -27 -7 -18 13
-60 25 -52 12 7 23 -24 14 -37 -4 -7 -1 -8 7 -3 8 5 11 4 7 -1 -3 -6 -1 -16 4
-24 6 -10 8 -4 4 19 -5 30 -4 33 9 21 9 -7 13 -16 10 -22 -3 -5 -1 -14 5 -21
10 -13 10 -42 -2 -53 -4 -4 -7 -2 -7 5 0 7 -14 31 -31 52 -17 21 -28 39 -24
39 4 0 2 7 -6 16 -12 14 -14 14 -26 -2 -10 -13 -13 -14 -13 -3 0 12 -2 12 -10
-1 -14 -21 -12 -33 3 -24 6 4 9 4 5 -1 -4 -4 -3 -14 3 -21 7 -9 6 -14 -3 -20
-7 -4 -10 -3 -5 1 4 5 0 16 -9 26 -12 14 -13 22 -4 38 6 12 8 21 5 21 -3 0 -8
0 -12 0 -5 0 -8 -4 -8 -9 0 -5 -3 -12 -7 -16 -4 -4 2 -24 14 -46 26 -51 29
-71 11 -91 -9 -10 -13 -24 -10 -31 3 -8 0 -25 -7 -39 -16 -29 -10 -49 12 -42
15 5 15 4 -1 -6 -9 -6 -15 -16 -11 -22 4 -6 10 -5 15 3 5 8 9 9 9 3 0 -6 -7
-17 -15 -24 -8 -7 -15 -17 -15 -23 0 -6 12 0 28 14 15 13 21 17 15 10 -10 -12
-10 -18 0 -30 10 -14 10 -14 -4 -4 -16 13 -29 8 -29 -9 0 -5 6 -6 13 -2 6 4 4
-2 -5 -13 -28 -31 -21 -39 10 -12 l27 24 -25 -28 c-21 -24 -23 -31 -11 -48 8
-14 8 -19 1 -14 -6 4 -15 16 -19 28 -4 12 -10 16 -14 10 -4 -6 3 -23 14 -37
18 -23 23 -25 38 -14 14 12 15 11 1 -5 -8 -11 -15 -28 -17 -39 -3 -18 -1 -19
14 -7 16 13 17 12 4 -3 -7 -10 -10 -18 -5 -18 4 0 3 -5 -4 -12 -8 -8 -8 -15
-2 -23 7 -9 5 -16 -5 -25 -14 -12 -13 -15 5 -35 15 -16 17 -22 6 -22 -8 0 -13
4 -11 8 3 3 -1 11 -8 17 -10 9 -13 1 -13 -33 0 -37 2 -42 15 -32 12 10 13 9 6
-3 -14 -23 -16 -51 -5 -65 8 -9 8 -15 0 -20 -11 -7 -9 -42 4 -63 6 -11 11 -11
24 0 15 11 15 11 5 -3 -7 -9 -10 -18 -7 -21 3 -3 0 -9 -7 -14 -7 -4 -10 -3 -6
3 4 6 -2 18 -13 28 -24 21 -25 17 -6 -21 13 -24 13 -30 0 -48 -22 -31 -16 -44
7 -16 18 23 19 23 9 3 -10 -21 -7 -27 12 -24 9 1 4 -27 -7 -36 -4 -4 -5 -3 -2
3 4 7 0 17 -9 24 -13 12 -14 9 -9 -21 4 -25 3 -30 -5 -19 -9 14 -14 7 -11 -13
1 -5 -3 -6 -9 -2 -5 3 -10 -2 -11 -12 0 -16 -1 -16 -9 2 -8 19 -9 19 -9 -2 -1
-32 -15 -35 -39 -10 -23 24 -25 36 -10 55 6 6 7 12 3 12 -4 0 -2 7 5 15 6 8 9
19 5 25 -3 5 1 20 9 32 l16 22 0 -22 c0 -13 -3 -21 -7 -19 -5 3 -8 -15 -8 -40
0 -24 -3 -47 -7 -49 -5 -3 -8 -11 -8 -17 0 -7 4 -6 10 3 8 12 10 10 10 -9 0
-64 22 37 24 111 1 25 -2 44 -6 41 -5 -2 -3 8 2 22 7 19 7 24 -2 19 -7 -4 -8
-3 -4 4 13 22 14 81 1 92 -10 8 -12 0 -9 -40 2 -27 -2 -52 -8 -56 -6 -4 -8 2
-3 17 4 17 4 20 -4 10 -5 -8 -8 -32 -6 -53 3 -34 2 -38 -11 -27 -9 8 -11 16
-5 23 6 7 6 17 1 26 -6 9 -4 20 5 30 9 9 13 31 12 52 -2 22 1 36 7 35 15 -3
20 43 7 56 -6 6 -11 20 -11 32 0 12 -4 25 -9 30 -5 6 -1 22 9 38 l18 28 -4
-63 c-2 -38 0 -58 5 -49 7 11 9 11 14 0 2 -8 4 21 3 63 0 42 -4 79 -8 83 -4 4
-4 -4 -1 -17 6 -21 5 -22 -11 -9 -9 8 -16 10 -15 5 5 -17 -12 -54 -22 -48 -6
4 -3 14 7 25 9 10 13 19 9 19 -4 0 -1 8 7 18 15 18 17 59 4 81 -5 7 -3 18 4
24 7 7 10 7 7 2 -3 -6 -1 -17 5 -25 8 -12 9 -12 4 3 -3 10 -2 16 2 13 4 -3 9
10 10 29 2 18 -2 36 -8 40 -13 8 -13 62 0 70 7 4 6 13 -1 27 -6 11 -7 18 -2
15 12 -7 10 90 -2 100 -4 5 -5 2 0 -6 5 -8 4 -12 -1 -8 -6 3 -9 -18 -9 -53 1
-33 -2 -57 -7 -54 -5 3 -7 0 -6 -8 2 -7 -2 -12 -9 -11 -7 2 -10 -7 -7 -23 3
-18 1 -23 -7 -18 -8 5 -9 3 -3 -7 4 -8 9 -35 10 -62 1 -35 -2 -45 -11 -37 -7
5 -11 28 -10 50 1 23 -2 43 -7 46 -5 3 -4 12 3 20 6 8 8 14 3 14 -4 0 2 10 13
23 13 13 21 36 21 57 0 19 1 38 2 43 6 20 5 33 -3 44 -5 7 -6 16 -4 21 3 4 2
14 -3 22 -5 8 -5 21 0 31 7 12 4 24 -8 40 -22 29 -22 61 -1 85 29 36 39 70 24
90 -14 20 -9 48 7 38 5 -3 7 -12 4 -19z m95 -349 c-9 -10 -9 -16 -1 -21 7 -4
8 -11 2 -18 -5 -7 -8 -19 -7 -28 2 -9 -3 -16 -11 -16 -10 0 -11 4 -3 14 6 7 8
13 4 13 -4 0 -2 6 4 14 9 10 9 16 1 21 -8 5 -8 11 1 21 6 8 14 14 16 14 3 0 0
-6 -6 -14z m15 -101 c-1 -8 -5 -17 -8 -21 -5 -4 -4 16 1 34 3 9 9 -1 7 -13z
m-104 -7 c-15 -15 -16 -64 -2 -73 6 -3 10 -18 9 -33 0 -24 -1 -25 -8 -7 -5 11
-6 24 -3 29 3 5 0 6 -6 3 -5 -4 -8 -16 -5 -26 3 -10 1 -21 -4 -24 -14 -9 -8
109 6 127 7 9 16 16 19 16 3 0 1 -5 -6 -12z m95 -126 c-13 -15 -14 -21 -4 -32
10 -12 9 -12 -6 -1 -16 13 -16 15 -1 32 10 11 19 19 22 19 3 0 -2 -8 -11 -18z
m-90 -219 c-3 -10 -5 -2 -5 17 0 19 2 27 5 18 2 -10 2 -26 0 -35z m90 12 c0
-8 -4 -12 -9 -9 -5 3 -6 10 -3 15 9 13 12 11 12 -6z m-10 -122 c-4 -3 0 -14 8
-23 14 -15 14 -18 0 -30 -11 -9 -12 -16 -5 -25 8 -10 8 -15 -1 -21 -7 -4 -9
-3 -5 4 3 6 1 14 -4 17 -8 5 -6 13 5 25 14 15 14 18 0 30 -13 11 -12 30 2 30
4 0 3 -3 0 -7z m-91 -139 c-4 -9 -9 -15 -11 -12 -3 3 -3 13 1 22 4 9 9 15 11
12 3 -3 3 -13 -1 -22z m9 -94 c-9 -41 -17 -33 -9 9 4 17 9 30 11 27 3 -2 2
-19 -2 -36z"/>
<path d="M3906 5324 c-6 -16 -8 -16 -16 -4 -7 11 -10 11 -11 3 -2 -15 -5 -31
-9 -38 -1 -3 -3 -11 -4 -17 -1 -7 -6 -12 -12 -11 -5 1 -10 -14 -10 -32 0 -18
4 -31 8 -29 10 6 10 4 12 -71 1 -38 6 -60 13 -60 6 0 15 -4 19 -8 10 -10 12
-137 2 -143 -12 -8 -10 -62 3 -70 6 -3 9 -20 7 -36 l-5 -30 18 23 c13 17 15
28 7 42 -6 12 -6 23 2 32 8 9 8 15 0 20 -6 3 -8 10 -6 14 3 4 1 13 -3 20 -5 8
-3 24 4 38 8 14 11 32 8 40 -3 7 1 21 10 31 18 20 15 40 -11 91 -12 21 -17 42
-12 47 5 5 2 18 -7 29 -15 19 -15 19 -11 -7 3 -15 1 -25 -3 -22 -11 6 -5 82 6
92 5 4 5 1 0 -7 -5 -9 -4 -12 3 -8 6 5 8 -1 4 -15 -3 -14 -2 -19 7 -14 6 4 9
11 6 16 -3 5 0 12 7 16 7 4 10 4 6 -1 -10 -10 31 -67 42 -60 6 3 6 16 0 29 -6
16 -5 28 3 36 9 10 9 11 0 6 -6 -3 -13 -3 -16 1 -2 5 -2 2 -1 -4 5 -19 -11
-16 -31 7 -9 10 -15 25 -12 33 3 8 2 19 -3 26 -5 9 -9 8 -14 -5z m8 -19 c-4
-8 0 -23 7 -33 13 -15 12 -16 -3 -4 -20 16 -30 4 -34 -45 -2 -23 4 -44 17 -62
11 -15 22 -36 24 -47 2 -10 4 -19 5 -19 1 0 4 -13 6 -30 2 -22 1 -26 -6 -15
-5 8 -10 11 -10 6 0 -5 -8 -2 -18 7 -10 10 -21 15 -23 13 -3 -3 -4 18 -3 47 0
29 -4 61 -10 72 -15 28 -14 38 2 58 8 9 12 17 7 17 -4 0 -2 6 4 13 6 8 7 18 3
22 -4 5 -2 5 5 1 6 -3 14 -2 18 4 9 15 15 12 9 -5z m59 -86 c7 -25 3 -24 -17
6 -13 19 -13 23 -2 19 8 -3 16 -14 19 -25z m-56 -201 c-3 -8 -6 -5 -6 6 -1 11
2 17 5 13 3 -3 4 -12 1 -19z m-2 -137 c0 -22 -3 -37 -7 -34 -14 8 -8 73 6 73
1 0 1 -18 1 -39z"/>
<path d="M3867 5231 c-4 -17 -3 -21 5 -13 5 5 8 16 6 23 -3 8 -7 3 -11 -10z"/>
<path d="M3885 5131 c2 -45 22 -78 38 -62 7 7 6 15 -3 26 -7 8 -10 15 -6 15 4
0 0 14 -9 30 -9 17 -17 30 -19 30 -1 0 -2 -18 -1 -39z m20 -20 c2 -11 7 -27
11 -34 5 -9 4 -9 -5 -1 -6 6 -14 24 -17 40 -3 16 -3 26 1 23 3 -4 7 -16 10
-28z"/>
<path d="M3927 5223 c-4 -3 -7 -11 -7 -17 0 -6 5 -5 12 2 6 6 9 14 7 17 -3 3
-9 2 -12 -2z"/>
<path d="M3890 4745 c-11 -20 -10 -28 2 -47 17 -27 20 -174 3 -171 -12 2 -12
-58 0 -78 11 -17 14 -207 4 -235 -10 -29 0 -38 22 -18 14 13 16 21 8 36 -8 14
-7 25 5 42 13 20 13 27 0 51 -9 18 -11 32 -5 38 5 5 7 16 4 23 -3 8 0 21 6 28
9 10 9 16 1 21 -6 4 -10 14 -9 23 1 10 0 19 -1 22 -1 3 -3 26 -4 53 -2 35 2
51 16 63 9 9 15 21 11 27 -3 5 -12 -1 -19 -14 -7 -13 -13 -19 -13 -14 -1 6 3
17 8 24 6 9 6 22 -1 34 -13 25 -20 99 -7 74 6 -9 9 -23 7 -29 -3 -21 13 -59
23 -52 5 3 6 11 2 17 -5 7 -8 21 -8 32 0 11 -9 33 -21 47 l-21 27 -13 -24z
m16 -26 c1 -25 -1 -28 -8 -15 -5 10 -7 24 -4 32 8 21 11 17 12 -17z m11 -91
c-3 -8 -6 -5 -6 6 -1 11 2 17 5 13 3 -3 4 -12 1 -19z m-5 -129 c-4 -25 -2 -30
9 -24 11 7 12 6 2 -7 -7 -8 -10 -18 -6 -22 11 -10 12 -35 3 -41 -5 -3 -7 3 -5
14 2 11 -2 25 -10 31 -11 10 -11 28 1 68 7 23 11 12 6 -19z m5 -131 c-3 -8 -6
-5 -6 6 -1 11 2 17 5 13 3 -3 4 -12 1 -19z m5 -74 c-6 -35 -12 -29 -10 11 1
20 4 31 8 25 4 -6 5 -22 2 -36z m-10 -96 c-8 -8 -9 -4 -5 13 4 13 8 18 11 10
2 -7 -1 -18 -6 -23z"/>
<path d="M4107 5669 c7 -7 15 -10 18 -7 3 3 -2 9 -12 12 -14 6 -15 5 -6 -5z"/>
<path d="M2514 5519 c-18 -20 -19 -46 -22 -535 -2 -425 0 -519 12 -547 11 -28
35 -46 127 -100 63 -35 263 -151 445 -256 285 -165 336 -191 370 -190 21 1 30
4 19 6 -13 3 -39 38 -75 106 -79 146 -171 312 -258 467 -82 146 -135 241 -216
390 -57 103 -187 338 -272 490 -29 52 -63 116 -75 143 -13 26 -26 47 -29 47
-4 0 -15 -9 -26 -21z m27 -476 c13 -16 12 -17 -3 -4 -17 13 -22 21 -14 21 2 0
10 -8 17 -17z m4 -84 c0 -10 5 -19 10 -18 6 1 9 5 7 11 -1 5 2 7 8 3 8 -5 8
-11 0 -20 -7 -9 -6 -16 4 -24 11 -10 16 -9 24 5 8 15 10 15 15 0 4 -9 2 -15
-5 -13 -7 1 -13 -4 -14 -10 -1 -7 -2 -14 -4 -15 -7 -10 -7 -39 1 -44 5 -3 9
-2 10 3 2 23 8 46 14 51 5 6 4 -12 -5 -53 -1 -5 -2 -19 -1 -30 1 -16 3 -17 10
-5 6 8 7 18 4 22 -2 5 0 14 5 21 5 7 8 20 7 29 -2 10 0 16 3 15 4 -1 7 3 7 8
0 6 -4 9 -10 7 -5 -2 -7 -1 -3 3 3 4 8 5 11 3 2 -1 12 4 23 12 18 14 18 14 5
-2 -7 -10 -10 -18 -6 -18 4 0 1 -7 -6 -16 -19 -23 -19 -41 -3 -55 13 -10 14
-8 10 14 -3 17 1 30 12 39 15 11 15 11 6 -2 -6 -8 -10 -24 -8 -35 1 -10 -2
-25 -7 -31 -6 -8 -6 -14 0 -18 5 -3 11 -3 14 1 2 5 2 3 1 -4 -2 -7 1 -15 6
-18 6 -4 10 -3 11 2 0 4 2 18 5 31 2 13 0 21 -4 18 -5 -3 -9 1 -9 8 0 7 6 13
13 13 7 0 11 -11 9 -24 -1 -12 2 -23 7 -23 5 0 2 -7 -6 -16 -9 -8 -13 -21 -9
-27 3 -7 3 -9 -2 -5 -4 4 -22 -21 -39 -55 -17 -34 -41 -76 -52 -92 -12 -17
-24 -39 -28 -50 -3 -11 -22 -45 -40 -75 l-34 -54 -7 36 c-4 20 -4 101 0 180 4
78 8 163 9 188 2 25 8 56 15 70 10 22 11 23 7 3 -2 -12 2 -27 9 -33 8 -7 12
-25 9 -48 -3 -30 -2 -34 7 -19 16 27 18 50 5 66 -6 8 -11 21 -11 30 0 27 -15
43 -29 32 -9 -8 -13 -7 -13 4 0 7 5 13 11 12 6 -1 10 8 10 21 -1 12 1 20 5 17
3 -4 6 -15 6 -26z m90 22 c3 -5 2 -12 -3 -15 -5 -3 -9 1 -9 9 0 17 3 19 12 6z
m5 -41 c-6 -11 -13 -20 -16 -20 -2 0 0 9 6 20 6 11 13 20 16 20 2 0 0 -9 -6
-20z m69 -27 c6 -12 7 -24 3 -27 -5 -3 -9 0 -9 7 0 7 -4 21 -8 32 -10 25 -2
18 14 -12z m43 -35 c-14 -14 -44 -20 -36 -7 3 5 9 7 14 4 5 -3 11 -1 15 5 3 5
9 10 13 10 3 0 1 -5 -6 -12z m-9 -53 c-7 -21 -12 -19 -10 4 0 11 5 18 9 15 4
-3 5 -11 1 -19z"/>
<path d="M2564 4893 c2 -10 6 -17 10 -16 15 3 16 11 2 22 -12 10 -14 9 -12 -6z"/>
<path d="M2523 4817 c-1 -34 -3 -85 -6 -114 -2 -29 -1 -50 3 -48 4 3 13 -2 19
-9 8 -9 8 -17 2 -20 -5 -3 -11 -1 -13 6 -3 8 -7 6 -11 -5 -4 -10 -2 -16 5 -14
7 1 12 -13 12 -35 1 -20 4 -39 7 -43 4 -3 5 10 3 30 -1 19 1 33 6 30 5 -3 7 3
5 15 -2 11 0 22 6 25 5 4 10 1 10 -4 1 -6 2 -17 3 -23 1 -7 0 -17 -3 -23 -10
-18 -9 -35 1 -29 5 3 7 9 4 12 -3 3 0 12 8 21 8 9 15 21 15 26 1 6 6 10 11 10
6 0 10 5 11 10 0 6 6 17 13 25 7 8 22 35 34 60 20 41 20 45 5 62 -19 21 -29
16 -18 -9 13 -29 13 -40 3 -54 -8 -11 -9 -10 -4 3 3 10 1 20 -4 23 -5 3 -10
-4 -12 -15 -5 -31 -23 -20 -24 15 -1 17 -7 44 -14 60 l-12 30 -13 -25 c-9 -17
-10 -29 -3 -37 5 -6 8 -24 5 -40 -4 -26 -4 -25 -7 7 l-3 35 -7 -35 -8 -35 1
35 c1 19 -2 40 -6 46 -3 6 -5 25 -3 42 3 17 -1 35 -7 41 -9 7 -13 -6 -14 -52z
m76 -68 c1 -30 31 -95 31 -67 0 9 4 20 10 23 13 8 1 -25 -17 -46 -7 -9 -11
-19 -8 -22 3 -4 2 -5 -2 -2 -3 3 -12 0 -18 -5 -17 -14 -29 18 -14 36 6 7 9 19
6 26 -3 8 -6 5 -7 -7 l-1 -20 -9 20 c-8 18 -9 18 -9 2 -1 -10 -6 -15 -11 -12
-6 4 -7 11 -4 17 5 7 2 8 -5 4 -9 -6 -9 -12 3 -25 9 -10 16 -22 16 -27 -1 -5
-9 1 -19 14 -11 12 -18 30 -16 40 2 9 4 35 6 57 l2 40 6 -45 c5 -36 10 -45 26
-45 18 0 20 7 19 55 -1 37 1 48 6 35 5 -11 9 -32 9 -46z"/>
<path d="M2596 4695 c4 -8 1 -22 -5 -29 -7 -9 -8 -17 -3 -20 17 -10 30 17 21
42 -5 12 -11 22 -13 22 -3 0 -3 -7 0 -15z"/>
<path d="M2631 4823 c0 -10 -3 -40 -5 -68 -4 -33 -3 -41 3 -25 4 14 13 24 19
22 9 -1 9 3 0 17 -9 15 -9 23 0 34 10 11 9 17 -2 26 -12 10 -15 9 -15 -6z"/>
<path d="M2514 4515 c1 -14 6 -25 11 -25 14 -1 14 28 1 40 -10 7 -13 4 -12
-15z"/>
<path d="M3886 5481 c-3 -4 4 -17 17 -27 22 -19 22 -19 4 2 -9 11 -14 24 -10
27 3 4 4 7 0 7 -3 0 -8 -4 -11 -9z"/>
<path d="M3950 5426 c0 -2 8 -10 18 -17 15 -13 16 -12 3 4 -13 16 -21 21 -21
13z"/>
<path d="M3915 5401 c-3 -5 -2 -12 3 -15 5 -3 9 1 9 9 0 17 -3 19 -12 6z"/>
<path d="M3944 5395 c1 -8 8 -21 16 -28 12 -10 12 -9 2 4 -6 9 -9 18 -6 21 3
3 1 9 -4 12 -6 3 -9 -1 -8 -9z"/>
<path d="M3813 5345 c0 -8 4 -12 9 -9 5 3 6 10 3 15 -9 13 -12 11 -12 -6z"/>
<path d="M4040 5306 c0 -2 8 -10 18 -17 15 -13 16 -12 3 4 -13 16 -21 21 -21
13z"/>
<path d="M4010 5285 c0 -2 6 -8 13 -14 10 -8 14 -7 14 2 0 8 -6 14 -14 14 -7
0 -13 -1 -13 -2z"/>
<path d="M4095 5231 c-3 -5 -2 -12 3 -15 5 -3 9 1 9 9 0 17 -3 19 -12 6z"/>
<path d="M3806 5180 c6 -8 10 -23 8 -33 -1 -11 0 -16 4 -13 12 13 10 36 -6 48
-15 11 -15 11 -6 -2z"/>
<path d="M4123 5138 c-11 -19 -13 -39 -1 -32 5 3 7 9 4 12 -3 3 -1 11 5 19 6
7 9 13 6 13 -3 0 -9 -6 -14 -12z"/>
<path d="M3815 5081 c-3 -5 -1 -12 4 -15 11 -7 9 -25 -4 -46 -7 -13 -6 -13 7
-2 14 11 16 30 8 52 -1 3 -2 8 -1 13 1 10 -7 9 -14 -2z"/>
<path d="M4050 5061 c0 -6 4 -13 10 -16 6 -3 7 1 4 9 -7 18 -14 21 -14 7z"/>
<path d="M3803 4755 c0 -8 4 -12 9 -9 5 3 6 10 3 15 -9 13 -12 11 -12 -6z"/>
<path d="M3819 4703 c-13 -17 -13 -17 6 -3 11 8 22 16 24 17 2 2 0 3 -6 3 -6
0 -17 -8 -24 -17z"/>
<path d="M3803 4643 c0 -9 4 -10 14 -2 7 6 13 12 13 14 0 1 -6 2 -13 2 -8 0
-14 -6 -14 -14z"/>
<path d="M3803 4605 c0 -8 10 -23 21 -32 21 -18 21 -18 4 2 -9 11 -17 24 -16
28 0 5 -2 11 -4 13 -3 2 -5 -3 -5 -11z"/>
<path d="M3813 4482 c2 -12 9 -28 17 -35 10 -10 11 -9 4 3 -5 8 -9 21 -10 28
-2 8 -5 17 -8 20 -4 3 -5 -4 -3 -16z"/>
<path d="M3809 4437 c6 -8 7 -18 3 -22 -4 -5 -1 -5 6 -1 10 6 10 11 1 22 -6 8
-14 14 -16 14 -3 0 0 -6 6 -13z"/>
<path d="M3803 4302 c10 -10 14 -22 10 -27 -5 -4 -2 -5 5 -1 11 6 10 12 -4 27
-9 10 -19 19 -22 19 -3 0 2 -8 11 -18z"/>
<path d="M3624 3984 c-18 -14 -18 -15 4 -4 12 6 22 13 22 15 0 8 -5 6 -26 -11z"/>
</g>
</svg>
